<mxfile host="app.diagrams.net" agent="Mozilla/5.0 (Windows NT 10.0; Win64; x64) AppleWebKit/537.36 (KHTML, like Gecko) Chrome/132.0.0.0 Safari/537.36 OPR/117.0.0.0" version="26.1.3">
  <diagram id="C5RBs43oDa-KdzZeNtuy" name="Page-1">
    <mxGraphModel dx="1630" dy="797" grid="1" gridSize="10" guides="1" tooltips="1" connect="1" arrows="1" fold="1" page="1" pageScale="1" pageWidth="827" pageHeight="1169" math="0" shadow="0">
      <root>
        <mxCell id="WIyWlLk6GJQsqaUBKTNV-0" />
        <mxCell id="WIyWlLk6GJQsqaUBKTNV-1" parent="WIyWlLk6GJQsqaUBKTNV-0" />
        <mxCell id="jz2pUIoc7waFW3o1TIT4-4" style="edgeStyle=orthogonalEdgeStyle;rounded=0;orthogonalLoop=1;jettySize=auto;html=1;entryX=0.5;entryY=0;entryDx=0;entryDy=0;" edge="1" parent="WIyWlLk6GJQsqaUBKTNV-1" source="jz2pUIoc7waFW3o1TIT4-0" target="jz2pUIoc7waFW3o1TIT4-2">
          <mxGeometry relative="1" as="geometry" />
        </mxCell>
        <mxCell id="jz2pUIoc7waFW3o1TIT4-0" value="Start" style="ellipse;whiteSpace=wrap;html=1;aspect=fixed;" vertex="1" parent="WIyWlLk6GJQsqaUBKTNV-1">
          <mxGeometry x="384" width="60" height="60" as="geometry" />
        </mxCell>
        <mxCell id="jz2pUIoc7waFW3o1TIT4-1" value="This is for items&lt;div&gt;Ignoring player movement and player camera movement&lt;/div&gt;&lt;div&gt;and weapons&lt;/div&gt;" style="text;html=1;align=center;verticalAlign=middle;whiteSpace=wrap;rounded=0;" vertex="1" parent="WIyWlLk6GJQsqaUBKTNV-1">
          <mxGeometry x="180" y="15" width="190" height="30" as="geometry" />
        </mxCell>
        <mxCell id="jz2pUIoc7waFW3o1TIT4-9" style="edgeStyle=orthogonalEdgeStyle;rounded=0;orthogonalLoop=1;jettySize=auto;html=1;entryX=0.5;entryY=0;entryDx=0;entryDy=0;" edge="1" parent="WIyWlLk6GJQsqaUBKTNV-1" source="jz2pUIoc7waFW3o1TIT4-2" target="jz2pUIoc7waFW3o1TIT4-8">
          <mxGeometry relative="1" as="geometry" />
        </mxCell>
        <mxCell id="jz2pUIoc7waFW3o1TIT4-2" value="ItemBase&lt;div&gt;&lt;br&gt;&lt;/div&gt;&lt;div&gt;int packAmount;&lt;/div&gt;&lt;div&gt;GameObject packPrefab;&lt;/div&gt;&lt;div&gt;bool isRecharging = false;&lt;/div&gt;" style="shape=parallelogram;html=1;strokeWidth=2;perimeter=parallelogramPerimeter;whiteSpace=wrap;rounded=1;arcSize=18;size=0.23;" vertex="1" parent="WIyWlLk6GJQsqaUBKTNV-1">
          <mxGeometry x="304.5" y="80" width="219" height="100" as="geometry" />
        </mxCell>
        <mxCell id="jz2pUIoc7waFW3o1TIT4-3" value="This is for weapons&lt;div&gt;Ignoring player movement and player camera movement&lt;/div&gt;&lt;div&gt;and items&lt;/div&gt;" style="text;html=1;align=center;verticalAlign=middle;whiteSpace=wrap;rounded=0;" vertex="1" parent="WIyWlLk6GJQsqaUBKTNV-1">
          <mxGeometry x="180" y="1270" width="190" height="30" as="geometry" />
        </mxCell>
        <mxCell id="jz2pUIoc7waFW3o1TIT4-47" style="edgeStyle=orthogonalEdgeStyle;rounded=0;orthogonalLoop=1;jettySize=auto;html=1;entryX=0;entryY=0.5;entryDx=0;entryDy=0;" edge="1" parent="WIyWlLk6GJQsqaUBKTNV-1" source="jz2pUIoc7waFW3o1TIT4-5" target="jz2pUIoc7waFW3o1TIT4-46">
          <mxGeometry relative="1" as="geometry">
            <Array as="points">
              <mxPoint x="586" y="1400" />
              <mxPoint x="586" y="1360" />
            </Array>
          </mxGeometry>
        </mxCell>
        <mxCell id="jz2pUIoc7waFW3o1TIT4-5" value="WeaponBase&lt;div&gt;&lt;br&gt;&lt;/div&gt;&lt;div&gt;Transform shootPoint;&lt;/div&gt;&lt;div&gt;IWeaponBehavior weaponBehavior;&lt;/div&gt;&lt;div&gt;int ammoCount;&lt;/div&gt;&lt;div&gt;int ammoMax;&lt;/div&gt;&lt;div&gt;void AmmoGet(int amount)&lt;/div&gt;&lt;div&gt;void Use()&lt;/div&gt;&lt;div&gt;Player begins with hitscan weapon equipped&lt;/div&gt;" style="shape=parallelogram;html=1;strokeWidth=2;perimeter=parallelogramPerimeter;whiteSpace=wrap;rounded=1;arcSize=18;size=0.23;" vertex="1" parent="WIyWlLk6GJQsqaUBKTNV-1">
          <mxGeometry x="140" y="1330" width="450" height="140" as="geometry" />
        </mxCell>
        <mxCell id="jz2pUIoc7waFW3o1TIT4-7" style="edgeStyle=orthogonalEdgeStyle;rounded=0;orthogonalLoop=1;jettySize=auto;html=1;entryX=0.5;entryY=0;entryDx=0;entryDy=0;" edge="1" parent="WIyWlLk6GJQsqaUBKTNV-1" source="jz2pUIoc7waFW3o1TIT4-6" target="jz2pUIoc7waFW3o1TIT4-5">
          <mxGeometry relative="1" as="geometry">
            <Array as="points">
              <mxPoint x="414" y="1320" />
              <mxPoint x="365" y="1320" />
            </Array>
          </mxGeometry>
        </mxCell>
        <mxCell id="jz2pUIoc7waFW3o1TIT4-6" value="Start" style="ellipse;whiteSpace=wrap;html=1;aspect=fixed;" vertex="1" parent="WIyWlLk6GJQsqaUBKTNV-1">
          <mxGeometry x="384" y="1250" width="60" height="60" as="geometry" />
        </mxCell>
        <mxCell id="jz2pUIoc7waFW3o1TIT4-12" style="edgeStyle=orthogonalEdgeStyle;rounded=0;orthogonalLoop=1;jettySize=auto;html=1;entryX=1;entryY=0.5;entryDx=0;entryDy=0;" edge="1" parent="WIyWlLk6GJQsqaUBKTNV-1" source="jz2pUIoc7waFW3o1TIT4-8" target="jz2pUIoc7waFW3o1TIT4-11">
          <mxGeometry relative="1" as="geometry" />
        </mxCell>
        <mxCell id="jz2pUIoc7waFW3o1TIT4-14" value="HealthPack" style="edgeLabel;html=1;align=center;verticalAlign=middle;resizable=0;points=[];" vertex="1" connectable="0" parent="jz2pUIoc7waFW3o1TIT4-12">
          <mxGeometry x="0.037" relative="1" as="geometry">
            <mxPoint y="-10" as="offset" />
          </mxGeometry>
        </mxCell>
        <mxCell id="jz2pUIoc7waFW3o1TIT4-16" style="edgeStyle=orthogonalEdgeStyle;rounded=0;orthogonalLoop=1;jettySize=auto;html=1;exitX=0.5;exitY=1;exitDx=0;exitDy=0;entryX=0.5;entryY=0;entryDx=0;entryDy=0;" edge="1" parent="WIyWlLk6GJQsqaUBKTNV-1" source="jz2pUIoc7waFW3o1TIT4-8" target="jz2pUIoc7waFW3o1TIT4-15">
          <mxGeometry relative="1" as="geometry">
            <mxPoint x="384" y="240" as="sourcePoint" />
            <mxPoint x="450" y="290" as="targetPoint" />
            <Array as="points">
              <mxPoint x="414" y="280" />
            </Array>
          </mxGeometry>
        </mxCell>
        <mxCell id="jz2pUIoc7waFW3o1TIT4-17" value="ShieldPack" style="edgeLabel;html=1;align=center;verticalAlign=middle;resizable=0;points=[];" vertex="1" connectable="0" parent="jz2pUIoc7waFW3o1TIT4-16">
          <mxGeometry x="-0.1163" y="1" relative="1" as="geometry">
            <mxPoint x="-1" y="2" as="offset" />
          </mxGeometry>
        </mxCell>
        <mxCell id="jz2pUIoc7waFW3o1TIT4-20" style="edgeStyle=orthogonalEdgeStyle;rounded=0;orthogonalLoop=1;jettySize=auto;html=1;entryX=0;entryY=0.5;entryDx=0;entryDy=0;" edge="1" parent="WIyWlLk6GJQsqaUBKTNV-1" source="jz2pUIoc7waFW3o1TIT4-8" target="jz2pUIoc7waFW3o1TIT4-19">
          <mxGeometry relative="1" as="geometry">
            <Array as="points" />
          </mxGeometry>
        </mxCell>
        <mxCell id="jz2pUIoc7waFW3o1TIT4-21" value="AmmoPack" style="edgeLabel;html=1;align=center;verticalAlign=middle;resizable=0;points=[];" vertex="1" connectable="0" parent="jz2pUIoc7waFW3o1TIT4-20">
          <mxGeometry x="-0.2" y="-3" relative="1" as="geometry">
            <mxPoint x="1" y="-13" as="offset" />
          </mxGeometry>
        </mxCell>
        <mxCell id="jz2pUIoc7waFW3o1TIT4-8" value="Item Pack Type" style="rounded=1;whiteSpace=wrap;html=1;" vertex="1" parent="WIyWlLk6GJQsqaUBKTNV-1">
          <mxGeometry x="361" y="200" width="106" height="40" as="geometry" />
        </mxCell>
        <mxCell id="jz2pUIoc7waFW3o1TIT4-33" style="edgeStyle=orthogonalEdgeStyle;rounded=0;orthogonalLoop=1;jettySize=auto;html=1;entryX=0.5;entryY=0;entryDx=0;entryDy=0;" edge="1" parent="WIyWlLk6GJQsqaUBKTNV-1" source="jz2pUIoc7waFW3o1TIT4-11" target="jz2pUIoc7waFW3o1TIT4-22">
          <mxGeometry relative="1" as="geometry" />
        </mxCell>
        <mxCell id="jz2pUIoc7waFW3o1TIT4-11" value="ItemBase item = new HealthItem with the designated amount and prefab" style="rounded=1;whiteSpace=wrap;html=1;" vertex="1" parent="WIyWlLk6GJQsqaUBKTNV-1">
          <mxGeometry y="190" width="280" height="60" as="geometry" />
        </mxCell>
        <mxCell id="jz2pUIoc7waFW3o1TIT4-36" style="edgeStyle=orthogonalEdgeStyle;rounded=0;orthogonalLoop=1;jettySize=auto;html=1;entryX=1;entryY=0.5;entryDx=0;entryDy=0;" edge="1" parent="WIyWlLk6GJQsqaUBKTNV-1" source="jz2pUIoc7waFW3o1TIT4-15" target="jz2pUIoc7waFW3o1TIT4-22">
          <mxGeometry relative="1" as="geometry" />
        </mxCell>
        <mxCell id="jz2pUIoc7waFW3o1TIT4-15" value="ItemBase item = new ShieldPack with the designated amount and prefab" style="rounded=1;whiteSpace=wrap;html=1;" vertex="1" parent="WIyWlLk6GJQsqaUBKTNV-1">
          <mxGeometry x="274" y="300" width="280" height="60" as="geometry" />
        </mxCell>
        <mxCell id="jz2pUIoc7waFW3o1TIT4-29" style="edgeStyle=orthogonalEdgeStyle;rounded=0;orthogonalLoop=1;jettySize=auto;html=1;" edge="1" parent="WIyWlLk6GJQsqaUBKTNV-1" source="jz2pUIoc7waFW3o1TIT4-19" target="jz2pUIoc7waFW3o1TIT4-28">
          <mxGeometry relative="1" as="geometry" />
        </mxCell>
        <mxCell id="jz2pUIoc7waFW3o1TIT4-19" value="ItemBase item = new AmmoPack with the designated amount and prefab" style="rounded=1;whiteSpace=wrap;html=1;" vertex="1" parent="WIyWlLk6GJQsqaUBKTNV-1">
          <mxGeometry x="547" y="190" width="280" height="60" as="geometry" />
        </mxCell>
        <mxCell id="jz2pUIoc7waFW3o1TIT4-35" style="edgeStyle=orthogonalEdgeStyle;rounded=0;orthogonalLoop=1;jettySize=auto;html=1;" edge="1" parent="WIyWlLk6GJQsqaUBKTNV-1" source="jz2pUIoc7waFW3o1TIT4-22" target="jz2pUIoc7waFW3o1TIT4-34">
          <mxGeometry relative="1" as="geometry" />
        </mxCell>
        <mxCell id="jz2pUIoc7waFW3o1TIT4-22" value="OnPackConsume()&lt;div&gt;When the player collects the pack&lt;/div&gt;" style="rounded=1;whiteSpace=wrap;html=1;" vertex="1" parent="WIyWlLk6GJQsqaUBKTNV-1">
          <mxGeometry x="80" y="280" width="120" height="60" as="geometry" />
        </mxCell>
        <mxCell id="jz2pUIoc7waFW3o1TIT4-31" value="" style="edgeStyle=orthogonalEdgeStyle;rounded=0;orthogonalLoop=1;jettySize=auto;html=1;" edge="1" parent="WIyWlLk6GJQsqaUBKTNV-1" source="jz2pUIoc7waFW3o1TIT4-28" target="jz2pUIoc7waFW3o1TIT4-30">
          <mxGeometry relative="1" as="geometry" />
        </mxCell>
        <mxCell id="jz2pUIoc7waFW3o1TIT4-28" value="OnPackConsume()&lt;div&gt;When the player collects the pack&lt;/div&gt;" style="rounded=1;whiteSpace=wrap;html=1;" vertex="1" parent="WIyWlLk6GJQsqaUBKTNV-1">
          <mxGeometry x="627" y="270" width="120" height="60" as="geometry" />
        </mxCell>
        <mxCell id="jz2pUIoc7waFW3o1TIT4-30" value="&lt;div&gt;&lt;span style=&quot;background-color: transparent; color: light-dark(rgb(0, 0, 0), rgb(255, 255, 255));&quot;&gt;Remove the pack&lt;/span&gt;&lt;/div&gt;&lt;div&gt;&lt;span style=&quot;background-color: transparent; color: light-dark(rgb(0, 0, 0), rgb(255, 255, 255));&quot;&gt;packPrefab.gameObject.SetActive(false);&lt;/span&gt;&lt;/div&gt;" style="whiteSpace=wrap;html=1;rounded=1;" vertex="1" parent="WIyWlLk6GJQsqaUBKTNV-1">
          <mxGeometry x="575.5" y="350" width="223" height="60" as="geometry" />
        </mxCell>
        <mxCell id="jz2pUIoc7waFW3o1TIT4-34" value="&lt;div&gt;make the pack and all its children invisible&lt;/div&gt;&lt;div&gt;isRecharging = true;&lt;/div&gt;" style="whiteSpace=wrap;html=1;rounded=1;" vertex="1" parent="WIyWlLk6GJQsqaUBKTNV-1">
          <mxGeometry x="28.5" y="370" width="223" height="60" as="geometry" />
        </mxCell>
        <mxCell id="jz2pUIoc7waFW3o1TIT4-40" style="edgeStyle=orthogonalEdgeStyle;rounded=0;orthogonalLoop=1;jettySize=auto;html=1;entryX=0;entryY=0.5;entryDx=0;entryDy=0;" edge="1" parent="WIyWlLk6GJQsqaUBKTNV-1" source="jz2pUIoc7waFW3o1TIT4-37" target="jz2pUIoc7waFW3o1TIT4-39">
          <mxGeometry relative="1" as="geometry" />
        </mxCell>
        <mxCell id="jz2pUIoc7waFW3o1TIT4-37" value="Coroutine for recharging, waiting for itemPackSO.rechargeTime" style="strokeWidth=2;html=1;shape=mxgraph.flowchart.delay;whiteSpace=wrap;" vertex="1" parent="WIyWlLk6GJQsqaUBKTNV-1">
          <mxGeometry x="40" y="460" width="200" height="60" as="geometry" />
        </mxCell>
        <mxCell id="jz2pUIoc7waFW3o1TIT4-38" style="edgeStyle=orthogonalEdgeStyle;rounded=0;orthogonalLoop=1;jettySize=auto;html=1;entryX=0.5;entryY=0;entryDx=0;entryDy=0;entryPerimeter=0;" edge="1" parent="WIyWlLk6GJQsqaUBKTNV-1" source="jz2pUIoc7waFW3o1TIT4-34" target="jz2pUIoc7waFW3o1TIT4-37">
          <mxGeometry relative="1" as="geometry" />
        </mxCell>
        <mxCell id="jz2pUIoc7waFW3o1TIT4-39" value="&lt;div&gt;make the pack and all its children visible&lt;/div&gt;isRecharging = false;&lt;div&gt;Debug.Log(&quot;item recharged&quot;);&lt;/div&gt;" style="rounded=1;whiteSpace=wrap;html=1;" vertex="1" parent="WIyWlLk6GJQsqaUBKTNV-1">
          <mxGeometry x="399.5" y="460" width="176" height="60" as="geometry" />
        </mxCell>
        <mxCell id="jz2pUIoc7waFW3o1TIT4-41" style="edgeStyle=orthogonalEdgeStyle;rounded=0;orthogonalLoop=1;jettySize=auto;html=1;entryX=0.75;entryY=1;entryDx=0;entryDy=0;exitX=0.5;exitY=0;exitDx=0;exitDy=0;" edge="1" parent="WIyWlLk6GJQsqaUBKTNV-1" source="jz2pUIoc7waFW3o1TIT4-39" target="jz2pUIoc7waFW3o1TIT4-8">
          <mxGeometry relative="1" as="geometry">
            <Array as="points">
              <mxPoint x="488" y="380" />
              <mxPoint x="570" y="380" />
              <mxPoint x="570" y="270" />
              <mxPoint x="460" y="270" />
              <mxPoint x="460" y="250" />
              <mxPoint x="441" y="250" />
            </Array>
          </mxGeometry>
        </mxCell>
        <mxCell id="jz2pUIoc7waFW3o1TIT4-48" style="edgeStyle=orthogonalEdgeStyle;rounded=0;orthogonalLoop=1;jettySize=auto;html=1;exitX=0.1;exitY=1.025;exitDx=0;exitDy=0;exitPerimeter=0;entryX=0.5;entryY=0;entryDx=0;entryDy=0;" edge="1" parent="WIyWlLk6GJQsqaUBKTNV-1" source="jz2pUIoc7waFW3o1TIT4-46" target="jz2pUIoc7waFW3o1TIT4-59">
          <mxGeometry relative="1" as="geometry">
            <mxPoint x="120" y="1500" as="targetPoint" />
            <Array as="points">
              <mxPoint x="621" y="1480" />
              <mxPoint x="182" y="1480" />
            </Array>
          </mxGeometry>
        </mxCell>
        <mxCell id="jz2pUIoc7waFW3o1TIT4-49" value="1" style="edgeLabel;html=1;align=center;verticalAlign=middle;resizable=0;points=[];" vertex="1" connectable="0" parent="jz2pUIoc7waFW3o1TIT4-48">
          <mxGeometry x="-0.0352" relative="1" as="geometry">
            <mxPoint x="199" y="-70" as="offset" />
          </mxGeometry>
        </mxCell>
        <mxCell id="jz2pUIoc7waFW3o1TIT4-50" style="edgeStyle=orthogonalEdgeStyle;rounded=0;orthogonalLoop=1;jettySize=auto;html=1;entryX=0.5;entryY=0;entryDx=0;entryDy=0;" edge="1" parent="WIyWlLk6GJQsqaUBKTNV-1" source="jz2pUIoc7waFW3o1TIT4-46" target="jz2pUIoc7waFW3o1TIT4-60">
          <mxGeometry relative="1" as="geometry">
            <mxPoint x="420" y="1520" as="targetPoint" />
            <Array as="points">
              <mxPoint x="665" y="1500" />
              <mxPoint x="416" y="1500" />
            </Array>
          </mxGeometry>
        </mxCell>
        <mxCell id="jz2pUIoc7waFW3o1TIT4-51" value="2" style="edgeLabel;html=1;align=center;verticalAlign=middle;resizable=0;points=[];" vertex="1" connectable="0" parent="jz2pUIoc7waFW3o1TIT4-50">
          <mxGeometry x="-0.0744" y="-3" relative="1" as="geometry">
            <mxPoint x="58" y="-77" as="offset" />
          </mxGeometry>
        </mxCell>
        <mxCell id="jz2pUIoc7waFW3o1TIT4-52" style="edgeStyle=orthogonalEdgeStyle;rounded=0;orthogonalLoop=1;jettySize=auto;html=1;exitX=0.75;exitY=1;exitDx=0;exitDy=0;entryX=0.856;entryY=0;entryDx=0;entryDy=0;entryPerimeter=0;" edge="1" parent="WIyWlLk6GJQsqaUBKTNV-1" source="jz2pUIoc7waFW3o1TIT4-46" target="jz2pUIoc7waFW3o1TIT4-61">
          <mxGeometry relative="1" as="geometry">
            <mxPoint x="693" y="1520" as="targetPoint" />
            <Array as="points">
              <mxPoint x="693" y="1450" />
              <mxPoint x="694" y="1450" />
            </Array>
          </mxGeometry>
        </mxCell>
        <mxCell id="jz2pUIoc7waFW3o1TIT4-55" value="3" style="edgeLabel;html=1;align=center;verticalAlign=middle;resizable=0;points=[];" vertex="1" connectable="0" parent="jz2pUIoc7waFW3o1TIT4-52">
          <mxGeometry x="-0.271" relative="1" as="geometry">
            <mxPoint as="offset" />
          </mxGeometry>
        </mxCell>
        <mxCell id="jz2pUIoc7waFW3o1TIT4-57" style="edgeStyle=orthogonalEdgeStyle;rounded=0;orthogonalLoop=1;jettySize=auto;html=1;entryX=1;entryY=0;entryDx=0;entryDy=0;" edge="1" parent="WIyWlLk6GJQsqaUBKTNV-1" source="jz2pUIoc7waFW3o1TIT4-46" target="jz2pUIoc7waFW3o1TIT4-65">
          <mxGeometry relative="1" as="geometry">
            <mxPoint x="760" y="1680" as="targetPoint" />
            <Array as="points">
              <mxPoint x="760" y="1360" />
              <mxPoint x="760" y="1655" />
            </Array>
          </mxGeometry>
        </mxCell>
        <mxCell id="jz2pUIoc7waFW3o1TIT4-58" value="Mouse1" style="edgeLabel;html=1;align=center;verticalAlign=middle;resizable=0;points=[];" vertex="1" connectable="0" parent="jz2pUIoc7waFW3o1TIT4-57">
          <mxGeometry x="-0.2827" y="1" relative="1" as="geometry">
            <mxPoint y="-117" as="offset" />
          </mxGeometry>
        </mxCell>
        <mxCell id="jz2pUIoc7waFW3o1TIT4-46" value="Get Player Input" style="rounded=1;whiteSpace=wrap;html=1;" vertex="1" parent="WIyWlLk6GJQsqaUBKTNV-1">
          <mxGeometry x="610" y="1340" width="110" height="40" as="geometry" />
        </mxCell>
        <mxCell id="jz2pUIoc7waFW3o1TIT4-59" value="&lt;div&gt;If hasHitScan switch to it&lt;/div&gt;&lt;div&gt;else Debug.Log(&quot;No weapon in 1st slot&quot;);&lt;/div&gt;" style="whiteSpace=wrap;html=1;rounded=1;" vertex="1" parent="WIyWlLk6GJQsqaUBKTNV-1">
          <mxGeometry x="70" y="1520" width="223" height="60" as="geometry" />
        </mxCell>
        <mxCell id="jz2pUIoc7waFW3o1TIT4-60" value="&lt;div&gt;If hasProjectile switch to it&lt;/div&gt;&lt;div&gt;else Debug.Log(&quot;No weapon in 2nd slot&quot;);&lt;/div&gt;" style="whiteSpace=wrap;html=1;rounded=1;" vertex="1" parent="WIyWlLk6GJQsqaUBKTNV-1">
          <mxGeometry x="304.5" y="1520" width="223" height="60" as="geometry" />
        </mxCell>
        <mxCell id="jz2pUIoc7waFW3o1TIT4-64" style="edgeStyle=orthogonalEdgeStyle;rounded=0;orthogonalLoop=1;jettySize=auto;html=1;exitX=0.5;exitY=1;exitDx=0;exitDy=0;" edge="1" parent="WIyWlLk6GJQsqaUBKTNV-1" source="jz2pUIoc7waFW3o1TIT4-61">
          <mxGeometry relative="1" as="geometry">
            <mxPoint x="710" y="1380" as="targetPoint" />
            <Array as="points">
              <mxPoint x="630" y="1600" />
              <mxPoint x="730" y="1600" />
              <mxPoint x="730" y="1400" />
              <mxPoint x="711" y="1400" />
            </Array>
          </mxGeometry>
        </mxCell>
        <mxCell id="jz2pUIoc7waFW3o1TIT4-61" value="&lt;div&gt;If hasContinuous switch to it&lt;/div&gt;&lt;div&gt;else Debug.Log(&quot;No weapon in 3rd slot&quot;);&lt;/div&gt;" style="whiteSpace=wrap;html=1;rounded=1;" vertex="1" parent="WIyWlLk6GJQsqaUBKTNV-1">
          <mxGeometry x="540" y="1520" width="180" height="60" as="geometry" />
        </mxCell>
        <mxCell id="jz2pUIoc7waFW3o1TIT4-62" style="edgeStyle=orthogonalEdgeStyle;rounded=0;orthogonalLoop=1;jettySize=auto;html=1;entryX=0.927;entryY=1.05;entryDx=0;entryDy=0;entryPerimeter=0;exitX=0.5;exitY=1;exitDx=0;exitDy=0;" edge="1" parent="WIyWlLk6GJQsqaUBKTNV-1" source="jz2pUIoc7waFW3o1TIT4-59" target="jz2pUIoc7waFW3o1TIT4-46">
          <mxGeometry relative="1" as="geometry">
            <Array as="points">
              <mxPoint x="182" y="1600" />
              <mxPoint x="730" y="1600" />
              <mxPoint x="730" y="1400" />
              <mxPoint x="712" y="1400" />
            </Array>
          </mxGeometry>
        </mxCell>
        <mxCell id="jz2pUIoc7waFW3o1TIT4-63" style="edgeStyle=orthogonalEdgeStyle;rounded=0;orthogonalLoop=1;jettySize=auto;html=1;entryX=0.936;entryY=1.025;entryDx=0;entryDy=0;entryPerimeter=0;exitX=0.5;exitY=1;exitDx=0;exitDy=0;" edge="1" parent="WIyWlLk6GJQsqaUBKTNV-1" source="jz2pUIoc7waFW3o1TIT4-60" target="jz2pUIoc7waFW3o1TIT4-46">
          <mxGeometry relative="1" as="geometry">
            <Array as="points">
              <mxPoint x="416" y="1600" />
              <mxPoint x="730" y="1600" />
              <mxPoint x="730" y="1400" />
              <mxPoint x="713" y="1400" />
            </Array>
          </mxGeometry>
        </mxCell>
        <mxCell id="jz2pUIoc7waFW3o1TIT4-67" style="edgeStyle=orthogonalEdgeStyle;rounded=0;orthogonalLoop=1;jettySize=auto;html=1;exitX=1;exitY=1;exitDx=0;exitDy=0;entryX=0.5;entryY=0;entryDx=0;entryDy=0;" edge="1" parent="WIyWlLk6GJQsqaUBKTNV-1" source="jz2pUIoc7waFW3o1TIT4-65" target="jz2pUIoc7waFW3o1TIT4-74">
          <mxGeometry relative="1" as="geometry">
            <mxPoint x="660" y="1750" as="targetPoint" />
          </mxGeometry>
        </mxCell>
        <mxCell id="jz2pUIoc7waFW3o1TIT4-72" value="Projectile" style="edgeLabel;html=1;align=center;verticalAlign=middle;resizable=0;points=[];" vertex="1" connectable="0" parent="jz2pUIoc7waFW3o1TIT4-67">
          <mxGeometry x="-0.3333" y="-1" relative="1" as="geometry">
            <mxPoint as="offset" />
          </mxGeometry>
        </mxCell>
        <mxCell id="jz2pUIoc7waFW3o1TIT4-68" style="edgeStyle=orthogonalEdgeStyle;rounded=0;orthogonalLoop=1;jettySize=auto;html=1;entryX=0.5;entryY=0;entryDx=0;entryDy=0;" edge="1" parent="WIyWlLk6GJQsqaUBKTNV-1" source="jz2pUIoc7waFW3o1TIT4-65" target="jz2pUIoc7waFW3o1TIT4-75">
          <mxGeometry relative="1" as="geometry">
            <mxPoint x="416" y="1770" as="targetPoint" />
          </mxGeometry>
        </mxCell>
        <mxCell id="jz2pUIoc7waFW3o1TIT4-71" value="Continuous" style="edgeLabel;html=1;align=center;verticalAlign=middle;resizable=0;points=[];" vertex="1" connectable="0" parent="jz2pUIoc7waFW3o1TIT4-68">
          <mxGeometry x="-0.2728" y="-2" relative="1" as="geometry">
            <mxPoint as="offset" />
          </mxGeometry>
        </mxCell>
        <mxCell id="jz2pUIoc7waFW3o1TIT4-69" style="edgeStyle=orthogonalEdgeStyle;rounded=0;orthogonalLoop=1;jettySize=auto;html=1;exitX=0;exitY=1;exitDx=0;exitDy=0;entryX=0.5;entryY=0;entryDx=0;entryDy=0;" edge="1" parent="WIyWlLk6GJQsqaUBKTNV-1" source="jz2pUIoc7waFW3o1TIT4-65" target="jz2pUIoc7waFW3o1TIT4-73">
          <mxGeometry relative="1" as="geometry">
            <mxPoint x="190" y="1750" as="targetPoint" />
          </mxGeometry>
        </mxCell>
        <mxCell id="jz2pUIoc7waFW3o1TIT4-70" value="Hitscan" style="edgeLabel;html=1;align=center;verticalAlign=middle;resizable=0;points=[];" vertex="1" connectable="0" parent="jz2pUIoc7waFW3o1TIT4-69">
          <mxGeometry x="-0.22" y="-1" relative="1" as="geometry">
            <mxPoint as="offset" />
          </mxGeometry>
        </mxCell>
        <mxCell id="jz2pUIoc7waFW3o1TIT4-65" value="What gun type&lt;div&gt;is being held?&lt;/div&gt;" style="rhombus;whiteSpace=wrap;html=1;" vertex="1" parent="WIyWlLk6GJQsqaUBKTNV-1">
          <mxGeometry x="345.5" y="1630" width="141" height="100" as="geometry" />
        </mxCell>
        <mxCell id="jz2pUIoc7waFW3o1TIT4-86" style="edgeStyle=orthogonalEdgeStyle;rounded=0;orthogonalLoop=1;jettySize=auto;html=1;entryX=0.5;entryY=0;entryDx=0;entryDy=0;" edge="1" parent="WIyWlLk6GJQsqaUBKTNV-1" source="jz2pUIoc7waFW3o1TIT4-73" target="jz2pUIoc7waFW3o1TIT4-85">
          <mxGeometry relative="1" as="geometry" />
        </mxCell>
        <mxCell id="jz2pUIoc7waFW3o1TIT4-73" value="&lt;div&gt;Use() the weapon&lt;/div&gt;&lt;div&gt;and update the ammo accordingly&lt;/div&gt;" style="whiteSpace=wrap;html=1;rounded=1;" vertex="1" parent="WIyWlLk6GJQsqaUBKTNV-1">
          <mxGeometry x="81.5" y="1730" width="223" height="60" as="geometry" />
        </mxCell>
        <mxCell id="jz2pUIoc7waFW3o1TIT4-84" style="edgeStyle=orthogonalEdgeStyle;rounded=0;orthogonalLoop=1;jettySize=auto;html=1;entryX=0.5;entryY=0;entryDx=0;entryDy=0;" edge="1" parent="WIyWlLk6GJQsqaUBKTNV-1" source="jz2pUIoc7waFW3o1TIT4-74" target="jz2pUIoc7waFW3o1TIT4-83">
          <mxGeometry relative="1" as="geometry" />
        </mxCell>
        <mxCell id="jz2pUIoc7waFW3o1TIT4-74" value="&lt;div&gt;Use() the weapon&lt;/div&gt;&lt;div&gt;and update the ammo accordingly&lt;/div&gt;" style="whiteSpace=wrap;html=1;rounded=1;" vertex="1" parent="WIyWlLk6GJQsqaUBKTNV-1">
          <mxGeometry x="547" y="1730" width="223" height="60" as="geometry" />
        </mxCell>
        <mxCell id="jz2pUIoc7waFW3o1TIT4-78" style="edgeStyle=orthogonalEdgeStyle;rounded=0;orthogonalLoop=1;jettySize=auto;html=1;entryX=0.75;entryY=1;entryDx=0;entryDy=0;" edge="1" parent="WIyWlLk6GJQsqaUBKTNV-1" source="jz2pUIoc7waFW3o1TIT4-75" target="jz2pUIoc7waFW3o1TIT4-75">
          <mxGeometry relative="1" as="geometry">
            <mxPoint x="430" y="1880" as="targetPoint" />
            <Array as="points">
              <mxPoint x="548" y="1830" />
              <mxPoint x="548" y="1900" />
              <mxPoint x="472" y="1900" />
            </Array>
          </mxGeometry>
        </mxCell>
        <mxCell id="jz2pUIoc7waFW3o1TIT4-79" value="mouse1 still held down" style="edgeLabel;html=1;align=center;verticalAlign=middle;resizable=0;points=[];" vertex="1" connectable="0" parent="jz2pUIoc7waFW3o1TIT4-78">
          <mxGeometry x="0.3014" relative="1" as="geometry">
            <mxPoint x="23" y="10" as="offset" />
          </mxGeometry>
        </mxCell>
        <mxCell id="jz2pUIoc7waFW3o1TIT4-81" style="edgeStyle=orthogonalEdgeStyle;rounded=0;orthogonalLoop=1;jettySize=auto;html=1;entryX=0.5;entryY=0;entryDx=0;entryDy=0;" edge="1" parent="WIyWlLk6GJQsqaUBKTNV-1" source="jz2pUIoc7waFW3o1TIT4-75" target="jz2pUIoc7waFW3o1TIT4-80">
          <mxGeometry relative="1" as="geometry" />
        </mxCell>
        <mxCell id="jz2pUIoc7waFW3o1TIT4-82" value="mouse1 let go" style="edgeLabel;html=1;align=center;verticalAlign=middle;resizable=0;points=[];" vertex="1" connectable="0" parent="jz2pUIoc7waFW3o1TIT4-81">
          <mxGeometry x="0.1984" relative="1" as="geometry">
            <mxPoint x="11" as="offset" />
          </mxGeometry>
        </mxCell>
        <mxCell id="jz2pUIoc7waFW3o1TIT4-75" value="&lt;div&gt;update the ammo&lt;/div&gt;&lt;div&gt;Use() the weapon&lt;/div&gt;&lt;div&gt;and set isHoldingFire = true&lt;/div&gt;" style="whiteSpace=wrap;html=1;rounded=1;" vertex="1" parent="WIyWlLk6GJQsqaUBKTNV-1">
          <mxGeometry x="304.5" y="1790" width="223" height="70" as="geometry" />
        </mxCell>
        <mxCell id="jz2pUIoc7waFW3o1TIT4-87" style="edgeStyle=orthogonalEdgeStyle;rounded=0;orthogonalLoop=1;jettySize=auto;html=1;entryX=0.75;entryY=0;entryDx=0;entryDy=0;" edge="1" parent="WIyWlLk6GJQsqaUBKTNV-1" source="jz2pUIoc7waFW3o1TIT4-80" target="jz2pUIoc7waFW3o1TIT4-46">
          <mxGeometry relative="1" as="geometry">
            <Array as="points">
              <mxPoint x="810" y="1950" />
              <mxPoint x="810" y="1320" />
              <mxPoint x="693" y="1320" />
            </Array>
          </mxGeometry>
        </mxCell>
        <mxCell id="jz2pUIoc7waFW3o1TIT4-80" value="isHoldingFire = false;" style="whiteSpace=wrap;html=1;rounded=1;" vertex="1" parent="WIyWlLk6GJQsqaUBKTNV-1">
          <mxGeometry x="315" y="1930" width="129" height="40" as="geometry" />
        </mxCell>
        <mxCell id="jz2pUIoc7waFW3o1TIT4-89" style="edgeStyle=orthogonalEdgeStyle;rounded=0;orthogonalLoop=1;jettySize=auto;html=1;entryX=0.75;entryY=0;entryDx=0;entryDy=0;" edge="1" parent="WIyWlLk6GJQsqaUBKTNV-1" source="jz2pUIoc7waFW3o1TIT4-83" target="jz2pUIoc7waFW3o1TIT4-46">
          <mxGeometry relative="1" as="geometry">
            <Array as="points">
              <mxPoint x="810" y="1850" />
              <mxPoint x="810" y="1320" />
              <mxPoint x="693" y="1320" />
            </Array>
          </mxGeometry>
        </mxCell>
        <mxCell id="jz2pUIoc7waFW3o1TIT4-83" value="Spawn a projectile and shoot it forward with projectileSpeed" style="whiteSpace=wrap;html=1;rounded=1;" vertex="1" parent="WIyWlLk6GJQsqaUBKTNV-1">
          <mxGeometry x="574" y="1820" width="173" height="60" as="geometry" />
        </mxCell>
        <mxCell id="jz2pUIoc7waFW3o1TIT4-88" style="edgeStyle=orthogonalEdgeStyle;rounded=0;orthogonalLoop=1;jettySize=auto;html=1;entryX=0.75;entryY=0;entryDx=0;entryDy=0;exitX=0.5;exitY=1;exitDx=0;exitDy=0;" edge="1" parent="WIyWlLk6GJQsqaUBKTNV-1" source="jz2pUIoc7waFW3o1TIT4-85" target="jz2pUIoc7waFW3o1TIT4-46">
          <mxGeometry relative="1" as="geometry">
            <Array as="points">
              <mxPoint x="177" y="2010" />
              <mxPoint x="810" y="2010" />
              <mxPoint x="810" y="1320" />
              <mxPoint x="693" y="1320" />
            </Array>
          </mxGeometry>
        </mxCell>
        <mxCell id="jz2pUIoc7waFW3o1TIT4-85" value="use a raycast to check where the shot hit and Debug.Log the collider&#39;s name" style="whiteSpace=wrap;html=1;rounded=1;" vertex="1" parent="WIyWlLk6GJQsqaUBKTNV-1">
          <mxGeometry x="90" y="1820" width="173" height="60" as="geometry" />
        </mxCell>
      </root>
    </mxGraphModel>
  </diagram>
</mxfile>
